# xmcd CD database file
#
# Track frame offsets:
#	150
#	31537
#	56762
#	83142
#	103717
#	129255
#	156630
#	175752
#	193645
#	225195
#	247717
#	272345
#
# Disc length: 4023 seconds
#
# Revision: 0
# Processed by: cddbd v1.4PL0 Copyright (c) Steve Scherf et al.
# Submitted via: CDex 1.50Beta7
#
DISCID=870fb50c
DTITLE=The Birdland Stars - The Birdland Star On Tour
DYEAR=2001
DGENRE=Jazz
TTITLE0=A Bit Of The Blues
TTITLE1=Two Pairs Of Aces
TTITLE2=Minorin' The Blues
TTITLE3=Phil 'Er Up
TTITLE4=Roulette
TTITLE5=Last Lap
TTITLE6=Hip Boots
TTITLE7=For Kicks Only
TTITLE8=Ah Funk New Baby
TTITLE9=Birdland Fantasy
TTITLE10=Playboy
TTITLE11=Conte's Condolences
EXTD=YEAR: 2001
EXTT0=
EXTT1=
EXTT2=
EXTT3=
EXTT4=
EXTT5=
EXTT6=
EXTT7=
EXTT8=
EXTT9=
EXTT10=
EXTT11=
PLAYORDER=
